<?xml version="1.0" encoding="utf-8"?>
<!-- Generator: Adobe Illustrator 16.0.0, SVG Export Plug-In . SVG Version: 6.00 Build 0)  -->
<!DOCTYPE svg PUBLIC "-//W3C//DTD SVG 1.1//EN" "http://www.w3.org/Graphics/SVG/1.1/DTD/svg11.dtd">
<svg version="1.1" id="Слой_1" xmlns="http://www.w3.org/2000/svg" xmlns:xlink="http://www.w3.org/1999/xlink" x="0px" y="0px"
	 width="60px" height="30px" viewBox="0 0 60 30" enable-background="new 0 0 60 30" xml:space="preserve">
<path fill="#FFFFFF" d="M4,0h22c2.209,0,4,1.791,4,4v22c0,2.209-1.791,4-4,4H4c-2.209,0-4-1.791-4-4V4C0,1.792,1.791,0,4,0z"/>
<path fill="#FFFFFF" d="M34,0h22c2.209,0,4,1.791,4,4v22c0,2.209-1.791,4-4,4H34c-2.209,0-4-1.791-4-4V4C30,1.792,31.791,0,34,0z"/>
<path fill="#2B93FE" d="M51.809,9.345l-8.484,8.46l-3.158-3.145c-0.406-0.39-1.257-0.537-1.793,0.009
	c-0.532,0.543-0.447,1.418-0.043,1.806l4.092,4.083C42.626,20.754,43.074,21,43.341,21s0.658-0.212,0.862-0.406l9.465-9.421
	c0.406-0.389,0.494-1.289-0.047-1.819C53.072,8.815,52.215,8.957,51.809,9.345z"/>
</svg>
