<svg width="12" height="12" viewBox="0 0 12 12" fill="none" xmlns="http://www.w3.org/2000/svg">
<path fill-rule="evenodd" clip-rule="evenodd" d="M0.254957 11.7451C0.595084 12.0852 1.14645 12.0852 1.4863 11.7454L6.00007 7.23146L10.5138 11.7454C10.854 12.0849 11.4051 12.0849 11.7449 11.7451C12.0848 11.405 12.085 10.8536 11.7452 10.514L7.23133 6.00016L11.7449 1.48647C12.085 1.14634 12.085 0.594705 11.7449 0.254854C11.4048 -0.0852726 10.8537 -0.0847218 10.5136 0.25513L6.00005 4.76888L1.4863 0.25513C1.14617 -0.0849972 0.594809 -0.0847218 0.255233 0.25513C-0.0848939 0.595256 -0.0848939 1.14634 0.255233 1.48647L4.76882 6.00018L0.255233 10.514C-0.0848939 10.8541 -0.0851693 11.4052 0.254957 11.7451Z" fill="#979797"/>
</svg>
