<svg width="16" height="16" viewBox="0 0 16 16" fill="none" xmlns="http://www.w3.org/2000/svg">
<path d="M5.53677 8.39097L4.80609 10.8161C4.762 11.0397 4.95727 11.2381 5.18403 11.194L7.60912 10.4633C7.76344 10.4318 7.90517 10.3562 8.01855 10.246L15.7662 2.49832C16.078 2.18652 16.078 1.67945 15.7662 1.36766L14.6324 0.233848C14.3206 -0.0779494 13.8136 -0.0779494 13.5018 0.233848L5.75408 7.98154C5.64385 8.09492 5.56511 8.23665 5.53677 8.39097Z" fill="#2B93FE"/>
<path d="M15.1993 8.00112C14.7584 8.00112 14.3994 8.36016 14.3994 8.80108V14.4008H1.59993V1.6014H7.19969C7.64061 1.6014 7.99965 1.24236 7.99965 0.80143C7.99965 0.360504 7.64061 0.00146484 7.19969 0.00146484H0.799965C0.35904 0.00146484 0 0.360504 0 0.80143V15.2008C0 15.6417 0.35904 16.0008 0.799965 16.0008H15.1993C15.6403 16.0008 15.9993 15.6417 15.9993 15.2008V8.80108C15.9993 8.36016 15.6403 8.00112 15.1993 8.00112Z" fill="#2B93FE"/>
</svg>
