<svg width="40" height="42" viewBox="0 0 40 42" fill="none" xmlns="http://www.w3.org/2000/svg">
<path fill-rule="evenodd" clip-rule="evenodd" d="M28.0585 32.7337C28.0667 25.8031 28.0727 16.2683 28.0782 9.33797C31.3527 12.2585 33.9262 15.2899 33.9271 18.6706C33.9277 22.0677 31.3461 29.8005 28.0585 32.7337ZM19.8831 36.6157C18.8892 36.6051 17.8177 36.3365 16.7277 35.8755V21.4019H23.2646V35.865C22.0983 36.3536 20.9488 36.6271 19.8831 36.6157ZM6.06563 18.6118C6.08721 15.2602 8.65211 12.2676 11.9139 9.36147V32.6952C8.63356 29.7341 6.04404 21.9743 6.06563 18.6118ZM20.0354 5.48098C21.0424 5.48333 22.1233 5.7416 23.2202 6.19085V16.8818H16.6745V6.24609C17.8332 5.75629 18.9758 5.47834 20.0354 5.48098ZM19.9457 0.000350176C10.8479 0.0679289 0.00121617 9.69819 0 18.6556C-0.00121617 27.6474 10.8239 41.9641 19.9016 41.9999C29.0928 42.0361 39.9869 27.7576 40 18.6979C40.0131 9.65852 29.0402 -0.0672285 19.9457 0.000350176Z" fill="#2B93FE"/>
</svg>
