<svg width="151" height="50" viewBox="0 0 151 50" fill="none" xmlns="http://www.w3.org/2000/svg">
<path fill-rule="evenodd" clip-rule="evenodd" d="M28.7599 35.0718C28.7683 27.6462 28.7746 17.4303 28.7802 10.005C32.1366 13.1342 34.7743 16.382 34.7752 20.0042C34.7759 23.644 32.1297 31.9291 28.7599 35.0718ZM20.3802 39.2311C19.3614 39.2197 18.2632 38.932 17.1459 38.4381V22.9307H23.8463V38.4267C22.6508 38.9503 21.4725 39.2434 20.3802 39.2311ZM6.21727 19.9412C6.23939 16.3502 8.86841 13.1439 12.2117 10.0301V35.0306C8.8494 31.858 6.19514 23.5439 6.21727 19.9412ZM20.5363 5.87248C21.5685 5.875 22.6763 6.15172 23.8008 6.63306V18.0876H17.0914V6.69224C18.2791 6.16746 19.4502 5.86965 20.5363 5.87248ZM20.4444 0.000375189C11.1191 0.072781 0.00124667 10.3909 1.05027e-07 19.9881C-0.00124646 29.6222 11.0945 44.9615 20.3992 44.9999C29.8201 45.0387 40.9866 29.7403 41 20.0335C41.0134 10.3484 29.7662 -0.0720306 20.4444 0.000375189Z" fill="#2B93FE"/>
<path fill-rule="evenodd" clip-rule="evenodd" d="M56 22.6808V3.05935H59.691V10.8025H67.896V3.00849C69.115 3.00849 70.2366 3.00122 71.3579 3.02112C71.46 3.02302 71.5633 3.19771 71.6556 3.30164C71.6788 3.32754 71.6631 3.38977 71.6631 3.43526C71.6584 9.80809 71.6534 16.1809 71.6456 22.5541C71.6456 22.5929 71.6083 22.6321 71.5717 22.7041H67.9302V14.4618H59.732V22.6808H56ZM118.033 19.2853V11.8445H114.656C114.591 12.3764 114.562 12.8547 114.472 13.321C114.086 15.3139 114.414 17.4677 113.089 19.2853H118.033ZM108.024 19.3359C109.613 19.232 110.373 18.6078 110.579 17.04C110.934 14.3362 111.202 11.6205 111.489 8.90824C111.527 8.54686 111.571 8.31941 112.019 8.32163C115.13 8.33868 118.241 8.33363 121.353 8.33774C121.418 8.33805 121.484 8.36206 121.619 8.3886V19.2724H123.465V25.8284H119.937V22.7813H111.566V25.8367H108.024V19.3359ZM95.4633 17.1906C95.6022 16.9957 95.7466 16.8042 95.8796 16.6052C97.5913 14.0386 99.3133 11.4786 101 8.89583C101.287 8.45705 101.591 8.29468 102.098 8.31774C102.974 8.35691 103.853 8.32848 104.773 8.32848V22.6843H101.248V13.7113C101.001 14.049 100.869 14.2167 100.75 14.3943C99.0003 17.0171 97.2454 19.6368 95.5105 22.2701C95.2867 22.61 95.0569 22.7632 94.6428 22.7484C93.7225 22.7159 92.8006 22.7383 91.8305 22.7383V8.39229H95.3224V17.1331C95.369 17.1523 95.4163 17.1713 95.4633 17.1906ZM140.402 8.32858V22.7017H136.879V13.9196C136.835 13.9041 136.791 13.8886 136.747 13.8731C136.624 14.0412 136.493 14.2048 136.377 14.3786C134.626 17.0014 132.87 19.6199 131.139 22.2557C130.896 22.6262 130.644 22.7655 130.21 22.7485C129.311 22.7141 128.41 22.7384 127.454 22.7384V8.37406H130.954V17.3495C131.208 17.0027 131.355 16.8176 131.486 16.6211C133.223 14.0169 134.965 11.4155 136.686 8.80084C136.912 8.45841 137.15 8.30773 137.561 8.32005C138.483 8.34753 139.407 8.32858 140.402 8.32858ZM84.2792 16.3115C82.9441 16.5437 81.6547 16.6998 80.4088 17.0254C80.0237 17.1259 79.6033 17.6383 79.4687 18.0515C79.1563 19.0086 79.8347 19.8723 80.8805 20.0264C82.9738 20.3354 84.483 18.8087 84.2792 16.3115ZM84.2958 13.9916C84.3077 12.6904 83.7022 11.8069 82.7068 11.5529C81.4086 11.2218 80.523 11.6613 79.7733 13.0294C78.7303 13.0294 77.6713 13.0303 76.612 13.0275C76.5252 13.0272 76.4385 12.9994 76.3099 12.9769C76.4476 11.5475 77.0659 10.3727 78.1724 9.54098C80.2823 7.95519 82.6113 7.69805 84.9945 8.80873C86.7224 9.61363 87.7514 11.1097 87.8218 13.0032C87.9414 16.2063 87.855 19.4171 87.855 22.7346C87.0755 22.7346 86.2751 22.7494 85.4762 22.7191C85.3538 22.7144 85.2039 22.5204 85.1272 22.3805C84.9566 22.0687 84.8242 21.7351 84.6523 21.3589C83.259 22.4967 81.7157 22.9942 79.9696 22.8736C77.0048 22.6686 75.2831 20.4687 75.9392 17.6793C76.251 16.3554 77.1282 15.5133 78.3108 14.9664C79.8563 14.2519 81.5119 14.0674 83.1854 13.9941C83.5426 13.9783 83.9013 13.9916 84.2958 13.9916ZM94.0283 3.00511C94.7884 3.00511 95.5484 2.98584 96.306 3.02216C96.4468 3.0288 96.6274 3.2335 96.7032 3.38955C97.0347 4.07062 97.4986 4.56183 98.2981 4.55709C99.0954 4.55204 99.5603 4.06461 99.8837 3.3766C99.9557 3.22339 100.142 3.02817 100.283 3.02153C101.042 2.98647 101.803 3.00511 102.566 3.00511C102.397 5.27543 100.471 6.94303 98.1566 6.90102C96.017 6.86217 94.1044 5.09632 94.0283 3.00511ZM92.5457 37.6445C92.5347 38.6592 92.8052 39.5794 93.4735 40.3527C94.4468 41.4792 96.012 41.8415 97.4238 41.2821C98.8559 40.7141 99.6977 39.2862 99.6545 37.4967C99.6119 35.7416 98.7091 34.3861 97.2572 33.8971C94.7895 33.0663 92.5335 34.8606 92.5457 37.6445ZM92.8306 43.7362V49.8039H89.3302V30.4201C90.1078 30.4201 90.8672 30.4014 91.6241 30.4359C91.7744 30.4425 91.9609 30.6241 92.0511 30.7739C92.2255 31.0626 92.3425 31.3861 92.4668 31.6596C93.3073 31.2635 94.0977 30.7634 94.9598 30.5085C97.4385 29.7753 100.035 30.7341 101.68 32.8806C104.374 36.3952 103.502 41.791 99.8294 44.0224C97.6241 45.3625 95.3878 45.3463 93.2122 43.8803C93.1373 43.8301 93.0641 43.7773 92.9877 43.7296C92.973 43.7204 92.9467 43.7302 92.8306 43.7362ZM124.589 44.8021H121.058V30.4565H124.568V35.6962H130.291V30.4694H133.84V44.768H130.315V39.2418H124.589V44.8021ZM113.753 38.4441C112.533 38.6207 111.343 38.7152 110.192 38.9837C109.175 39.2206 108.774 39.8963 108.902 40.7644C109.02 41.5683 109.781 42.1404 110.74 42.1458C112.766 42.1578 114.036 40.6905 113.753 38.4441ZM113.792 36.0797C113.807 34.7814 113.201 33.8962 112.206 33.6413C110.907 33.309 110.016 33.7509 109.288 35.0881C108.142 35.0878 106.997 35.0878 105.805 35.0878C105.945 33.6375 106.562 32.4624 107.669 31.63C109.778 30.0433 112.106 29.7864 114.49 30.8959C116.219 31.7004 117.248 33.1962 117.319 35.0897C117.439 38.2925 117.352 41.5036 117.352 44.8227C116.574 44.8227 115.774 44.8375 114.975 44.8072C114.852 44.8024 114.702 44.6097 114.625 44.4701C114.454 44.1577 114.322 43.8238 114.151 43.4482C112.757 44.5823 111.215 45.0823 109.469 44.9617C106.504 44.7573 104.781 42.5587 105.437 39.7687C105.747 38.4448 106.624 37.6023 107.807 37.0552C109.352 36.34 111.007 36.1555 112.681 36.0819C113.038 36.0664 113.396 36.0797 113.792 36.0797ZM63.1416 33.7204C61.0649 33.715 59.5677 35.3321 59.5539 37.5945C59.5398 39.8449 61.0365 41.516 63.0865 41.5388C65.1776 41.5621 66.7018 39.9087 66.7015 37.6166C66.7009 35.3482 65.2186 33.7258 63.1416 33.7204ZM70.2576 37.6299C70.2519 41.692 67.033 44.9874 63.0865 44.9713C59.1889 44.9551 55.9997 41.6427 56 37.6109C56.0006 33.595 59.1992 30.2819 63.1056 30.2516C67.0104 30.2212 70.2632 33.577 70.2576 37.6299ZM144.125 39.7758C144.569 38.5055 144.949 37.4223 145.327 36.3379C145.954 34.5382 146.591 32.7421 147.194 30.9345C147.325 30.5428 147.505 30.3978 147.913 30.4082C148.924 30.4342 149.935 30.4168 151 30.4168C150.983 30.5817 150.996 30.6916 150.96 30.7829C148.994 35.8593 147.038 40.9395 145.04 46.003C144.727 46.7974 144.281 47.5549 143.798 48.2613C142.747 49.7997 141.01 50.3487 139.176 49.782V46.8755C140.633 46.8477 141.601 46.1069 142.034 44.7255C142.137 44.3947 142.146 43.9598 142.022 43.6417C140.415 39.4968 138.775 35.3646 137.145 31.2283C137.056 31.0018 136.978 30.7703 136.855 30.4307C138.09 30.4307 139.23 30.4142 140.368 30.4531C140.499 30.4575 140.666 30.7513 140.739 30.9412C141.774 33.6294 142.796 36.323 143.822 39.0151C143.894 39.204 143.972 39.3913 144.125 39.7758ZM85.7114 44.8257C84.4232 44.8257 83.2769 44.8475 82.133 44.8052C81.9299 44.7979 81.6773 44.5626 81.5474 44.3658C80.623 42.9654 79.7245 41.5477 78.817 40.136C78.8052 40.118 78.7829 40.1066 78.7037 40.0403C78.4117 40.4866 78.119 40.9254 77.8338 41.3692C77.1836 42.3804 76.5494 43.4023 75.8786 44.3989C75.7496 44.5904 75.4854 44.7998 75.2772 44.8071C74.1515 44.8472 73.0243 44.826 71.7668 44.826C71.9249 44.5686 72.0304 44.386 72.1453 44.21C73.4973 42.1403 74.8405 40.0646 76.212 38.0078C76.474 37.6148 76.4949 37.3372 76.2254 36.9274C74.9676 35.0134 73.7477 33.0735 72.5159 31.1422C72.3963 30.9548 72.2858 30.7612 72.0789 30.4166C72.962 30.4166 73.7421 30.4987 74.4978 30.397C75.595 30.2491 76.2273 30.6652 76.7203 31.6479C77.2772 32.7576 78.0047 33.7802 78.7269 34.9515C79.2387 34.1191 79.7004 33.3594 80.1719 32.6063C80.6164 31.8962 80.9213 30.915 81.5624 30.5631C82.2301 30.1964 83.2265 30.4368 84.0789 30.4181C84.4599 30.4096 84.8414 30.4166 85.3717 30.4166C85.1914 30.7173 85.0765 30.9198 84.9516 31.1156C83.7198 33.047 82.5006 34.9872 81.2418 36.9009C80.957 37.3334 80.9836 37.6268 81.2616 38.0429C82.7328 40.2475 84.1731 42.4736 85.7114 44.8257Z" fill="white"/>
</svg>
