<svg width="24" height="18" viewBox="0 0 24 18" fill="none" xmlns="http://www.w3.org/2000/svg">
<path fill-rule="evenodd" clip-rule="evenodd" d="M23.5462 8.04389L15.8571 0.394984C15.3277 -0.131661 14.4706 -0.131661 13.9664 0.394984C13.437 0.92163 13.437 1.77429 13.9664 2.27586L19.3866 7.66771H1.33613C0.605042 7.66771 0 8.26959 0 8.99687C0 9.72414 0.605042 10.326 1.33613 10.326H19.3613L13.9664 15.7179C13.437 16.2445 13.437 17.0972 13.9664 17.5987C14.2185 17.8495 14.5714 18 14.9244 18C15.2773 18 15.605 17.8746 15.8824 17.5987L23.5966 9.92476C23.8487 9.67398 24 9.32288 24 8.97179C23.9496 8.64577 23.7983 8.29467 23.5462 8.04389Z" fill="white"/>
</svg>
