<svg width="24" height="18" viewBox="0 0 24 18" fill="none" xmlns="http://www.w3.org/2000/svg">
<path opacity="0.3" d="M0.453781 8.04389L8.14286 0.394984C8.67227 -0.131661 9.52941 -0.131661 10.0336 0.394984C10.563 0.92163 10.563 1.77429 10.0336 2.27586L4.61345 7.66771H22.6639C23.395 7.66771 24 8.26959 24 8.99687C24 9.72414 23.395 10.326 22.6639 10.326H4.63865L10.0336 15.7179C10.563 16.2445 10.563 17.0972 10.0336 17.5987C9.78151 17.8495 9.42857 18 9.07563 18C8.72269 18 8.39496 17.8746 8.11765 17.5987L0.403362 9.92476C0.151262 9.67398 0 9.32288 0 8.97179C0.0504208 8.64577 0.201681 8.29467 0.453781 8.04389Z" fill="#181B22"/>
</svg>
