<svg width="20" height="24" viewBox="0 0 20 24" fill="none" xmlns="http://www.w3.org/2000/svg">
<path d="M20 19.314C20.0034 17.4611 19.4502 15.6469 18.4073 14.0904C17.3643 12.5338 15.8762 11.3014 14.1224 10.5421C14.7918 9.97856 15.3277 9.28304 15.6939 8.50258C16.0601 7.72212 16.248 6.87495 16.2449 6.01842C16.2449 4.42224 15.5869 2.89143 14.4158 1.76275C13.2447 0.634082 11.6562 0 10 0C8.34375 0 6.75534 0.634082 5.5842 1.76275C4.41305 2.89143 3.75511 4.42224 3.75511 6.01842C3.75203 6.87495 3.93995 7.72212 4.30613 8.50258C4.67231 9.28304 5.20821 9.97856 5.87756 10.5421C4.12384 11.3014 2.63567 12.5338 1.59272 14.0904C0.549764 15.6469 -0.00339602 17.4611 1.56869e-05 19.314C1.56869e-05 20.4548 0.61226 22.0282 3.55103 23.0509C5.62726 23.7251 7.80971 24.0445 10 23.995C17.3877 23.995 20 21.4775 20 19.314ZM10 2.36016C10.7508 2.36016 11.4847 2.57472 12.1089 2.97669C12.7331 3.37867 13.2197 3.95001 13.507 4.61847C13.7943 5.28693 13.8694 6.02248 13.723 6.73211C13.5765 7.44174 13.215 8.09358 12.6841 8.6052C12.1532 9.11681 11.4769 9.46523 10.7405 9.60638C10.0042 9.74754 9.24098 9.67509 8.54737 9.39821C7.85375 9.12132 7.26091 8.65244 6.84381 8.05084C6.42671 7.44924 6.20409 6.74195 6.20409 6.01842C6.20409 5.04819 6.60401 4.1177 7.31589 3.43164C8.02776 2.74559 8.99326 2.36016 10 2.36016ZM10 21.6348C5.55103 21.6348 2.44899 20.4154 2.44899 19.314C2.44899 17.384 3.24454 15.533 4.66063 14.1683C6.07672 12.8035 7.99735 12.0368 10 12.0368C12.0027 12.0368 13.9233 12.8035 15.3394 14.1683C16.7555 15.533 17.551 17.384 17.551 19.314C17.551 20.4154 14.449 21.6348 10 21.6348Z" fill="white"/>
</svg>
